# xmcd
#
# Track frame offsets: 
#        150
#        24405
#        40733
#        51742
#        63081
#        83115
#        97286
#        108356
#        123353
#        143853
#        160874
#        182092
#        197811
#        213664
#        224077
#
# Disc length: 3282 seconds
#
# Revision: 0
# Processed by: cddbd v1.5.2PL0 Copyright (c) Steve Scherf et al.
# Submitted via: ExactAudioCopy v0.99pb3
#
DISCID=e40cd00f
DTITLE=Dale Adkins - Alone In The Red Room
DYEAR=2006
DGENRE=Bluegrass
TTITLE0=Gravel Dust
TTITLE1=Obligatory Waltz
TTITLE2=Sorrento
TTITLE3=River City
TTITLE4=Moose In The Meadow
TTITLE5=Mjchael's Song
TTITLE6=Country Blues
TTITLE7=Spring Break
TTITLE8=Tiger Tales
TTITLE9=Adirondack Wind
TTITLE10=Liza Jane
TTITLE11=Blackberry Blossom (Waltz)
TTITLE12=Guaocology
TTITLE13=Two Turns Left
TTITLE14=Shot Down
EXTD=
EXTT0=
EXTT1=
EXTT2=
EXTT3=
EXTT4=
EXTT5=
EXTT6=
EXTT7=
EXTT8=
EXTT9=
EXTT10=
EXTT11=
EXTT12=
EXTT13=
EXTT14=
PLAYORDER=
